# xmcd CD database file
#
# Track frame offsets:
#	150
#	19568
#	36228
#	60550
#
# Disc length: 896 seconds
#
# Revision: 0
# Processed by: cddbd v1.5.1PL0 Copyright (c) Steve Scherf et al.
# Submitted via: CDex 1.51
#
DISCID=28037e04
DTITLE=マイアミバズーカヘッド - 悲しき銀幕 〜春うらら〜
DYEAR=2003
DGENRE=Ska
TTITLE0=悲しき銀幕 〜春うらら〜
TTITLE1=僕の冒険物語
TTITLE2=夢を見よ若き魂
TTITLE3=笑って行きましょう。
EXTD=YEAR: 2003
EXTT0=
EXTT1=
EXTT2=
EXTT3=
PLAYORDER=
